<?xml version="1.0" standalone="no"?>
<!DOCTYPE svg PUBLIC "-//W3C//DTD SVG 20010904//EN"
 "http://www.w3.org/TR/2001/REC-SVG-20010904/DTD/svg10.dtd">
<svg version="1.0" xmlns="http://www.w3.org/2000/svg"
 width="640.000000pt" height="640.000000pt" viewBox="0 0 640.000000 640.000000"
 preserveAspectRatio="xMidYMid meet">
<metadata>
Created by potrace 1.11, written by Peter Selinger 2001-2013
</metadata>
<g transform="translate(0.000000,640.000000) scale(0.100000,-0.100000)"
fill="#000000" stroke="none">
<path d="M2999 6376 c-2 -2 -40 -6 -84 -10 -537 -45 -1086 -244 -1530 -555
-230 -161 -500 -414 -669 -626 -350 -441 -587 -982 -661 -1512 -3 -23 -8 -57
-11 -75 -19 -140 -26 -528 -11 -683 10 -114 16 -157 21 -180 3 -11 8 -42 11
-70 13 -98 77 -357 120 -480 113 -326 270 -623 464 -885 156 -210 417 -473
626 -631 717 -541 1607 -755 2490 -598 616 110 1187 402 1639 838 404 391 684
852 850 1401 9 31 19 69 22 85 3 16 7 32 9 36 5 7 31 124 40 181 3 18 10 59
16 91 11 62 14 85 26 212 15 151 8 569 -11 685 -3 14 -12 72 -21 130 -77 483
-296 989 -604 1395 -25 33 -50 65 -56 71 -5 7 -26 31 -45 55 -19 24 -87 97
-150 163 -503 518 -1169 852 -1880 941 -25 3 -63 8 -85 11 -46 6 -511 15 -516
10z m436 -1161 c137 -12 245 -24 325 -36 36 -6 76 -12 90 -13 14 -2 50 -7 80
-11 30 -4 57 -8 60 -10 3 -2 28 -6 55 -9 28 -4 66 -11 85 -16 19 -5 55 -12 80
-15 25 -3 61 -10 80 -15 19 -5 51 -12 70 -15 19 -3 51 -10 70 -15 19 -5 46
-11 60 -14 58 -11 191 -44 196 -49 3 -3 -4 -70 -16 -148 -12 -79 -23 -156 -25
-172 -2 -15 -6 -40 -9 -55 -3 -15 -8 -47 -11 -72 -2 -25 -7 -56 -9 -70 -3 -14
-7 -42 -10 -62 -3 -21 -9 -54 -12 -74 -3 -20 -7 -46 -8 -58 -12 -97 -31 -206
-35 -207 -3 0 -45 -1 -93 -2 l-87 -2 -27 75 c-15 41 -33 85 -41 98 -7 12 -11
22 -8 22 8 0 -81 173 -128 249 -104 168 -219 290 -362 386 -117 78 -268 142
-381 159 -21 4 -52 9 -69 13 -43 9 -280 9 -345 0 -238 -35 -426 -194 -470
-398 -11 -49 -10 -165 2 -209 16 -59 104 -170 135 -170 7 0 13 -4 13 -8 0 -5
19 -16 43 -26 23 -10 51 -21 62 -26 28 -13 155 -50 185 -55 14 -3 43 -9 65
-15 40 -10 248 -57 295 -66 14 -3 33 -7 42 -10 9 -3 25 -7 35 -9 10 -2 59 -16
108 -31 50 -14 95 -27 100 -29 6 -1 17 -5 25 -8 8 -3 44 -15 80 -27 36 -12 79
-28 97 -36 17 -8 34 -14 38 -14 6 0 36 -13 160 -71 28 -12 79 -40 114 -61 34
-21 67 -38 72 -38 5 0 9 -4 9 -10 0 -5 5 -10 10 -10 17 0 139 -98 206 -164
166 -165 296 -424 328 -656 26 -186 26 -378 1 -570 -17 -128 -55 -263 -112
-397 -20 -46 -40 -83 -46 -83 -6 0 -8 -3 -4 -6 7 -7 -81 -142 -122 -188 -124
-139 -215 -211 -373 -295 -116 -63 -290 -126 -433 -156 -80 -18 -156 -29 -275
-43 -84 -9 -575 -9 -660 1 -99 11 -140 16 -200 28 -30 6 -64 12 -75 14 -215
39 -458 143 -596 255 -254 207 -330 508 -196 778 17 34 34 62 39 62 4 0 8 6 8
13 0 32 192 197 230 197 5 0 10 5 10 12 0 6 3 9 6 5 4 -3 19 0 35 9 16 8 29
12 29 9 0 -3 8 -1 18 4 21 11 95 23 162 25 57 2 188 -28 243 -55 69 -35 162
-105 198 -150 19 -23 39 -47 45 -53 25 -26 84 -166 97 -226 26 -130 5 -249
-70 -389 -41 -77 -134 -193 -192 -240 -22 -18 -41 -37 -41 -41 0 -13 166 -81
232 -94 104 -21 134 -26 189 -32 80 -8 250 -9 306 -1 137 20 275 77 368 152
33 27 62 52 63 57 2 5 9 14 16 21 83 86 146 259 150 416 3 103 -11 164 -56
238 -27 45 -118 140 -164 171 -54 37 -156 92 -170 92 -7 0 -14 4 -16 9 -4 11
-180 81 -203 81 -8 0 -15 5 -15 12 0 6 -3 9 -6 6 -5 -5 -84 17 -144 39 -8 3
-19 7 -25 9 -26 6 -256 94 -309 118 -32 14 -65 26 -72 26 -8 0 -14 5 -14 10 0
6 -7 10 -16 10 -16 0 -179 83 -295 151 -272 158 -481 396 -554 630 -40 129
-50 201 -50 374 0 247 30 401 115 592 30 66 117 206 131 211 5 2 9 10 9 18 0
8 8 14 17 14 9 0 13 3 10 6 -10 10 120 133 189 179 32 22 61 42 64 45 29 29
289 140 363 154 12 2 54 12 92 21 73 18 95 21 210 30 38 3 71 8 73 10 6 6 369
-2 457 -10z"/>
</g>
</svg>
